/* XPM */
static char * stick_active_xpm[] = {
"16 22 3 1",
" 	c None",
".	c #2E3436",
"+	c #A4AAB7",
"................",
"................",
"................",
"................",
"................",
"................",
"................",
".......++.......",
".......++.......",
".......++.......",
"....++++++++....",
"....++++++++....",
".......++.......",
".......++.......",
".......++.......",
"................",
"................",
"................",
"................",
"................",
"................",
"................"};
